<mxfile host="app.diagrams.net" agent="Mozilla/5.0 (Windows NT 10.0; Win64; x64) AppleWebKit/537.36 (KHTML, like Gecko) Chrome/129.0.0.0 Safari/537.36" version="24.7.16">
  <diagram name="Page-1" id="638EEp8GceECWzirfDCj">
    <mxGraphModel dx="880" dy="434" grid="1" gridSize="10" guides="1" tooltips="1" connect="1" arrows="1" fold="1" page="1" pageScale="1" pageWidth="850" pageHeight="1100" math="0" shadow="0">
      <root>
        <mxCell id="0" />
        <mxCell id="1" parent="0" />
        <mxCell id="jgHarS3q_JT3_Yuem93v-5" value="User" style="swimlane;fontStyle=1;align=center;verticalAlign=top;childLayout=stackLayout;horizontal=1;startSize=26;horizontalStack=0;resizeParent=1;resizeParentMax=0;resizeLast=0;collapsible=1;marginBottom=0;whiteSpace=wrap;html=1;" vertex="1" parent="1">
          <mxGeometry x="100" y="70" width="200" height="220" as="geometry" />
        </mxCell>
        <mxCell id="jgHarS3q_JT3_Yuem93v-6" value="- userId : int&lt;div&gt;- userName: String&lt;/div&gt;&lt;div&gt;- following: Set&amp;lt;User&amp;gt;&lt;/div&gt;&lt;div&gt;- tweets: List&amp;lt;Tweet&amp;gt;&lt;/div&gt;" style="text;strokeColor=none;fillColor=none;align=left;verticalAlign=top;spacingLeft=4;spacingRight=4;overflow=hidden;rotatable=0;points=[[0,0.5],[1,0.5]];portConstraint=eastwest;whiteSpace=wrap;html=1;" vertex="1" parent="jgHarS3q_JT3_Yuem93v-5">
          <mxGeometry y="26" width="200" height="74" as="geometry" />
        </mxCell>
        <mxCell id="jgHarS3q_JT3_Yuem93v-7" value="" style="line;strokeWidth=1;fillColor=none;align=left;verticalAlign=middle;spacingTop=-1;spacingLeft=3;spacingRight=3;rotatable=0;labelPosition=right;points=[];portConstraint=eastwest;strokeColor=inherit;" vertex="1" parent="jgHarS3q_JT3_Yuem93v-5">
          <mxGeometry y="100" width="200" height="8" as="geometry" />
        </mxCell>
        <mxCell id="jgHarS3q_JT3_Yuem93v-8" value="+ User(userName : String)&lt;div&gt;+ follow(user: User): void&lt;/div&gt;&lt;div&gt;+ unFollow(user:User) : void&lt;/div&gt;&lt;div&gt;+ getTweets: List&amp;lt;Tweet&amp;gt;&lt;/div&gt;&lt;div&gt;+ getFollowing: Set&amp;lt;User&amp;gt;&lt;/div&gt;&lt;div&gt;+ getUserName: String&lt;/div&gt;&lt;div&gt;+ getUserId: int&lt;/div&gt;" style="text;strokeColor=none;fillColor=none;align=left;verticalAlign=top;spacingLeft=4;spacingRight=4;overflow=hidden;rotatable=0;points=[[0,0.5],[1,0.5]];portConstraint=eastwest;whiteSpace=wrap;html=1;" vertex="1" parent="jgHarS3q_JT3_Yuem93v-5">
          <mxGeometry y="108" width="200" height="112" as="geometry" />
        </mxCell>
        <mxCell id="jgHarS3q_JT3_Yuem93v-9" value="Tweet" style="swimlane;fontStyle=1;align=center;verticalAlign=top;childLayout=stackLayout;horizontal=1;startSize=26;horizontalStack=0;resizeParent=1;resizeParentMax=0;resizeLast=0;collapsible=1;marginBottom=0;whiteSpace=wrap;html=1;" vertex="1" parent="1">
          <mxGeometry x="460" y="70" width="280" height="220" as="geometry" />
        </mxCell>
        <mxCell id="jgHarS3q_JT3_Yuem93v-10" value="- tweetId : int&lt;div&gt;- tweetContent: String&lt;/div&gt;&lt;div&gt;- tweetTimeStamp: Date&lt;/div&gt;&lt;div&gt;- tweetAuthor:User&lt;/div&gt;" style="text;strokeColor=none;fillColor=none;align=left;verticalAlign=top;spacingLeft=4;spacingRight=4;overflow=hidden;rotatable=0;points=[[0,0.5],[1,0.5]];portConstraint=eastwest;whiteSpace=wrap;html=1;" vertex="1" parent="jgHarS3q_JT3_Yuem93v-9">
          <mxGeometry y="26" width="280" height="74" as="geometry" />
        </mxCell>
        <mxCell id="jgHarS3q_JT3_Yuem93v-11" value="" style="line;strokeWidth=1;fillColor=none;align=left;verticalAlign=middle;spacingTop=-1;spacingLeft=3;spacingRight=3;rotatable=0;labelPosition=right;points=[];portConstraint=eastwest;strokeColor=inherit;" vertex="1" parent="jgHarS3q_JT3_Yuem93v-9">
          <mxGeometry y="100" width="280" height="8" as="geometry" />
        </mxCell>
        <mxCell id="jgHarS3q_JT3_Yuem93v-12" value="+ Tweet(tweetContent:String,tweetAuthor:User)&lt;div&gt;+ getTweetId():int&lt;/div&gt;&lt;div&gt;+ gettweetContent():String&lt;/div&gt;&lt;div&gt;+ gettweetTimeStamp():Date&lt;/div&gt;&lt;div&gt;+ getTweetAuthor():User&lt;/div&gt;&lt;div&gt;+ toString():String&lt;/div&gt;" style="text;strokeColor=none;fillColor=none;align=left;verticalAlign=top;spacingLeft=4;spacingRight=4;overflow=hidden;rotatable=0;points=[[0,0.5],[1,0.5]];portConstraint=eastwest;whiteSpace=wrap;html=1;" vertex="1" parent="jgHarS3q_JT3_Yuem93v-9">
          <mxGeometry y="108" width="280" height="112" as="geometry" />
        </mxCell>
        <mxCell id="jgHarS3q_JT3_Yuem93v-13" value="1" style="endArrow=open;html=1;endSize=12;startArrow=diamondThin;startSize=14;startFill=1;edgeStyle=orthogonalEdgeStyle;align=left;verticalAlign=bottom;rounded=0;" edge="1" parent="1">
          <mxGeometry x="-1" y="3" relative="1" as="geometry">
            <mxPoint x="300" y="170" as="sourcePoint" />
            <mxPoint x="460" y="170" as="targetPoint" />
          </mxGeometry>
        </mxCell>
        <mxCell id="jgHarS3q_JT3_Yuem93v-14" value="&lt;b style=&quot;font-size: 19px;&quot;&gt;*&lt;/b&gt;" style="text;html=1;align=center;verticalAlign=middle;resizable=0;points=[];autosize=1;strokeColor=none;fillColor=none;fontSize=19;" vertex="1" parent="1">
          <mxGeometry x="425" y="145" width="30" height="40" as="geometry" />
        </mxCell>
      </root>
    </mxGraphModel>
  </diagram>
</mxfile>
